PathFileType	4	(X/Y/Z)	C:
DataRate	CameraRate	NumFrames	NumMarkers	Units	OrigDataRate	OrigDataStartFrame	OrigNumFrames
120	120	4	79	m	120	570	1138
Frame#	Time	AlejandroMask:BackLeft			AlejandroMask:BackRight			AlejandroMask:BackTop			AlejandroMask:Chest			AlejandroMask:HeadFront			AlejandroMask:HeadSide			AlejandroMask:HeadTop			AlejandroMask:LAnkleOut			AlejandroMask:LElbowOut			AlejandroMask:LHandOut			AlejandroMask:LHand_4			AlejandroMask:LKneeOut			AlejandroMask:LShin			AlejandroMask:LShoulderBack			AlejandroMask:LShoulderTop			AlejandroMask:LThigh			AlejandroMask:LToeIn			AlejandroMask:LToeOut			AlejandroMask:LUArmHigh			AlejandroMask:LWristIn			AlejandroMask:LWristOut			AlejandroMask:RAnkleOut			AlejandroMask:RElbowOut			AlejandroMask:RHandOut			AlejandroMask:RHand_4			AlejandroMask:RKneeOut			AlejandroMask:RShin			AlejandroMask:RShoulderBack			AlejandroMask:RShoulderTop			AlejandroMask:RThigh			AlejandroMask:RToeIn			AlejandroMask:RToeOut			AlejandroMask:RUArmHigh			AlejandroMask:RWristIn			AlejandroMask:RWristOut			AlejandroMask:WaistLBack			AlejandroMask:WaistLFront			AlejandroMask:WaistRBack			AlejandroMask:WaistRFront			Simon:Marker1			Simon:Marker2			Simon:Marker3			target:Marker1			target:Marker2			target:Marker3			AlejandroMask:LP1			AlejandroMask:LP2			AlejandroMask:LR1			AlejandroMask:LR2			AlejandroMask:LM1			AlejandroMask:LM2			AlejandroMask:LI1			AlejandroMask:LI2			AlejandroMask:LT1			AlejandroMask:LT2			AlejandroMask:RP1			AlejandroMask:RP2			AlejandroMask:RR1			AlejandroMask:RR2			AlejandroMask:RM1			AlejandroMask:RM2			AlejandroMask:RI1			AlejandroMask:RI2			AlejandroMask:RT1			AlejandroMask:RT2			*Unnamed_1			*Unnamed_2			*Unnamed_3			*Unnamed_4			*Unnamed_5			*Unnamed_6			*Unnamed_7			*Unnamed_8			*Unnamed_9			*Unnamed_10			*Unnamed_11			*Unnamed_12			*Unnamed_13			*Unnamed_14
		X1	Y1	Z1	X2	Y2	Z2	X3	Y3	Z3	X4	Y4	Z4	X5	Y5	Z5	X6	Y6	Z6	X7	Y7	Z7	X8	Y8	Z8	X9	Y9	Z9	X10	Y10	Z10	X11	Y11	Z11	X12	Y12	Z12	X13	Y13	Z13	X14	Y14	Z14	X15	Y15	Z15	X16	Y16	Z16	X17	Y17	Z17	X18	Y18	Z18	X19	Y19	Z19	X20	Y20	Z20	X21	Y21	Z21	X22	Y22	Z22	X23	Y23	Z23	X24	Y24	Z24	X25	Y25	Z25	X26	Y26	Z26	X27	Y27	Z27	X28	Y28	Z28	X29	Y29	Z29	X30	Y30	Z30	X31	Y31	Z31	X32	Y32	Z32	X33	Y33	Z33	X34	Y34	Z34	X35	Y35	Z35	X36	Y36	Z36	X37	Y37	Z37	X38	Y38	Z38	X39	Y39	Z39	X40	Y40	Z40	X41	Y41	Z41	X42	Y42	Z42	X43	Y43	Z43	X44	Y44	Z44	X45	Y45	Z45	X46	Y46	Z46	X47	Y47	Z47	X48	Y48	Z48	X49	Y49	Z49	X50	Y50	Z50	X51	Y51	Z51	X52	Y52	Z52	X53	Y53	Z53	X54	Y54	Z54	X55	Y55	Z55	X56	Y56	Z56	X57	Y57	Z57	X58	Y58	Z58	X59	Y59	Z59	X60	Y60	Z60	X61	Y61	Z61	X62	Y62	Z62	X63	Y63	Z63	X64	Y64	Z64	X65	Y65	Z65	X66	Y66	Z66	X67	Y67	Z67	X68	Y68	Z68	X69	Y69	Z69	X70	Y70	Z70	X71	Y71	Z71	X72	Y72	Z72	X73	Y73	Z73	X74	Y74	Z74	X75	Y75	Z75	X76	Y76	Z76	X77	Y77	Z77	X78	Y78	Z78	X79	Y79	Z79	

570	4.750000	0.298522	1.304710	0.306163	0.074267	1.331260	0.243044	0.179197	1.426500	0.341333	0.115949	1.212420	0.538627	0.219523	1.630950	0.631603	0.124304	1.631970	0.530237	0.255345	1.649280	0.484150	0.255848	0.095219	0.398319	0.389161	1.040320	0.509301	0.283096	0.719108	0.590359	0.330843	0.694004	0.564523	0.286960	0.513363	0.451746	0.227163	0.325774	0.479115	0.356240	1.328790	0.399944	0.322979	1.370910	0.493065	0.206019	0.640808	0.529949	0.227923	0.037931	0.522385	0.132057	0.046594	0.525640	0.390783	1.125400	0.420985	0.289100	0.771478	0.581385	0.345760	0.760213	0.542803	0.036776	0.088240	0.337151	-0.127166	1.112700	0.389333	-0.100287	0.775033	0.480436	-0.135464	0.753832	0.428089	-0.021537	0.502372	0.378577	0.029326	0.221976	0.418744	-0.014164	1.398540	0.320191	-0.013112	1.423390	0.417471	-0.016145	0.748760	0.467816	-0.014421	0.037410	0.454477	0.055718	0.045613	0.521698	-0.098940	1.229230	0.309342	-0.092586	0.831285	0.475183	-0.133089	0.807656	0.406436	0.271992	0.988747	0.280395	0.238602	0.958086	0.495034	0.103997	0.990864	0.226530	0.007585	0.951722	0.435398	-0.349924	1.829260	2.510610	-0.383477	1.742410	2.382190	-0.270013	1.767650	2.425010	-1.494110	1.754110	2.111420	-1.523900	1.665370	2.123150	-1.413510	1.675180	2.141640	0.325534	0.671439	0.541840	0.323355	0.638752	0.518690	0.310769	0.660358	0.556709	0.297519	0.620813	0.514222	0.287495	0.656632	0.574365	0.281559	0.615009	0.538880	0.261832	0.666193	0.579333	0.256455	0.624363	0.555025	0.225753	0.718414	0.559537	0.211630	0.695712	0.561451	-0.121097	0.726098	0.417164	-0.101475	0.688872	0.395161	-0.114138	0.718675	0.440100	-0.094662	0.670984	0.420870	-0.098526	0.712569	0.468347	-0.078287	0.660169	0.451813	-0.075710	0.723284	0.485367	-0.065877	0.680828	0.474881	-0.033867	0.775817	0.482976	-0.018345	0.743178	0.496962																																										 
571	4.758333	0.298660	1.304660	0.306057	0.074398	1.331110	0.242981	0.179286	1.426440	0.341212	0.116083	1.212390	0.538554	0.218218	1.630860	0.632156	0.123563	1.631720	0.530277	0.254824	1.649590	0.484955	0.255845	0.095190	0.398373	0.388835	1.040250	0.509535	0.281802	0.719572	0.591506	0.329465	0.694251	0.565659	0.287019	0.513318	0.452073	0.227153	0.325698	0.479360	0.356354	1.328750	0.399853	0.323070	1.370910	0.492940	0.206121	0.640823	0.530255	0.227924	0.037926	0.522384	0.132029	0.046565	0.525660	0.390631	1.125200	0.421071	0.287975	0.771913	0.582319	0.344564	0.760344	0.543717	0.036797	0.088257	0.337175	-0.127184	1.112650	0.389661	-0.100236	0.775010	0.480977	-0.135583	0.753818	0.428712	-0.021541	0.502396	0.378868	0.029303	0.221936	0.418853	-0.014084	1.398410	0.320084	-0.013021	1.423320	0.417362	-0.016096	0.748791	0.468005	-0.014426	0.037404	0.454481	0.055739	0.045587	0.521749	-0.098921	1.229100	0.309474	-0.092500	0.831251	0.475656	-0.133236	0.807637	0.407067	0.272180	0.988641	0.280474	0.238786	0.958088	0.495126	0.104199	0.990745	0.226589	0.007756	0.951730	0.435523	-0.349971	1.829320	2.510900	-0.383525	1.742460	2.382410	-0.270076	1.767710	2.425290	-1.493980	1.754080	2.111300	-1.523850	1.665340	2.123120	-1.413470	1.675160	2.141650	0.324060	0.671697	0.543079	0.321808	0.638853	0.520041	0.309268	0.660638	0.557992	0.295914	0.620959	0.515642	0.285952	0.657001	0.575674	0.279946	0.615441	0.540330	0.260355	0.666690	0.580556	0.254832	0.624843	0.556434	0.224442	0.718996	0.560613	0.210226	0.696337	0.562686	-0.121177	0.726042	0.417718	-0.101820	0.688785	0.395808	-0.114297	0.718577	0.440645	-0.094889	0.670932	0.421434	-0.098584	0.712530	0.468888	-0.078402	0.660103	0.452363	-0.075697	0.723225	0.485857	-0.065922	0.680770	0.475321	-0.033735	0.775641	0.483227	-0.018231	0.742867	0.496998																																										 
572	4.766667	0.298789	1.304620	0.305954	0.074507	1.330950	0.242905	0.179347	1.426380	0.341073	0.116218	1.212370	0.538484	0.216812	1.630830	0.632657	0.122775	1.631500	0.530240	0.254214	1.649920	0.485706	0.255837	0.095156	0.398436	0.388506	1.040210	0.509755	0.280494	0.720100	0.592555	0.328060	0.694538	0.566747	0.287049	0.513253	0.452419	0.227143	0.325612	0.479618	0.356452	1.328740	0.399759	0.323145	1.370920	0.492818	0.206219	0.640826	0.530570	0.227925	0.037914	0.522380	0.131997	0.046544	0.525679	0.390480	1.125040	0.421160	0.286832	0.772409	0.583232	0.343344	0.760511	0.544581	0.036811	0.088274	0.337193	-0.127178	1.112580	0.389973	-0.100182	0.774972	0.481540	-0.135648	0.753768	0.429403	-0.021537	0.502414	0.379172	0.029296	0.221894	0.418962	-0.014018	1.398250	0.319979	-0.012944	1.423240	0.417239	-0.016046	0.748831	0.468193	-0.014430	0.037391	0.454484	0.055749	0.045542	0.521795	-0.098900	1.228940	0.309607	-0.092388	0.831188	0.476173	-0.133379	0.807563	0.407756	0.272367	0.988531	0.280558	0.238971	0.958079	0.495229	0.104406	0.990626	0.226657	0.007925	0.951736	0.435646	-0.350028	1.829380	2.511190	-0.383572	1.742560	2.382680	-0.270135	1.767770	2.425560	-1.494000	1.754050	2.111320	-1.523810	1.665320	2.123090	-1.413470	1.675140	2.141660	0.322557	0.671953	0.544301	0.320279	0.639094	0.521186	0.307749	0.661001	0.559221	0.294141	0.621218	0.516913	0.284423	0.657481	0.576904	0.278233	0.615816	0.541716	0.258876	0.667219	0.581738	0.253142	0.625368	0.557781	0.223120	0.719604	0.561797	0.208823	0.697001	0.563851	-0.121289	0.725944	0.418448	-0.101971	0.688707	0.396393	-0.114367	0.718520	0.441239	-0.095006	0.670821	0.422037	-0.098547	0.712453	0.469443	-0.078471	0.660021	0.452918	-0.075652	0.723170	0.486381	-0.065911	0.680684	0.475877	-0.033559	0.775411	0.483585	-0.018120	0.742569	0.497151																																										 
573	4.775000	0.298921	1.304620	0.305874	0.074624	1.330800	0.242837	0.179407	1.426330	0.340964	0.116347	1.212360	0.538412	0.215380	1.630830	0.633142	0.121921	1.631270	0.530196	0.253543	1.650260	0.486468	0.255822	0.095138	0.398521	0.388194	1.040230	0.509967	0.279177	0.720669	0.593537	0.326639	0.694865	0.567781	0.287084	0.513210	0.452771	0.227117	0.325521	0.479874	0.356555	1.328770	0.399684	0.323211	1.371000	0.492730	0.206305	0.640811	0.530854	0.227921	0.037916	0.522388	0.131960	0.046518	0.525705	0.390344	1.124920	0.421258	0.285681	0.772936	0.584040	0.342133	0.760732	0.545428	0.036830	0.088285	0.337224	-0.127159	1.112470	0.390267	-0.100099	0.774917	0.482184	-0.135677	0.753688	0.430113	-0.021523	0.502420	0.379455	0.029291	0.221859	0.419080	-0.013952	1.398080	0.319864	-0.012871	1.423140	0.417101	-0.016009	0.748866	0.468362	-0.014439	0.037383	0.454491	0.055773	0.045510	0.521836	-0.098848	1.228750	0.309746	-0.092276	0.831099	0.476723	-0.133414	0.807479	0.408389	0.272579	0.988420	0.280671	0.239151	0.958065	0.495337	0.104637	0.990500	0.226746	0.008082	0.951735	0.435751	-0.350069	1.829420	2.511520	-0.383636	1.742720	2.382970	-0.270197	1.767830	2.425840	-1.493980	1.754060	2.111330	-1.523800	1.665320	2.123100	-1.413470	1.675140	2.141650	0.321032	0.672196	0.545440	0.318577	0.639301	0.522461	0.306182	0.661386	0.560385	0.292430	0.621515	0.518247	0.282964	0.658053	0.578031	0.276487	0.616274	0.543009	0.257311	0.667824	0.582883	0.251370	0.625981	0.559153	0.221786	0.720282	0.562834	0.207418	0.697730	0.564969	-0.121501	0.725911	0.419172	-0.102106	0.688565	0.397113	-0.114466	0.718461	0.441965	-0.095123	0.670718	0.422726	-0.098485	0.712402	0.470149	-0.078484	0.659928	0.453579	-0.075548	0.723100	0.486930	-0.065827	0.680612	0.476443	-0.033414	0.775215	0.483982	-0.017998	0.742280	0.497405																																										 
